<svg xmlns="http://www.w3.org/2000/svg" style="fill-rule:evenodd" viewBox="0 0 251 60.0217">
<style>
.fil0 {fill:#EA6806}
.fil3 {fill:#131414;fill-rule:nonzero}
.fil2 {fill:#EA6806;fill-opacity:0.6}
.fil1 {fill:#EA6806;fill-opacity:0.8}
</style>
<polygon class="fil0" points="62.1577,54.9738 62.1577,33.366 21.343,33.366 21.343,54.9738 "/>
<polygon class="fil1" points="33.3473,30.965 33.3473,18.9606 2.13601,18.9606 2.13601,50.172 18.9421,50.172 18.9421,30.965 "/>
<polygon class="fil2" points="45.3517,30.965 45.3517,2.15467 28.5456,2.15467 28.5456,16.5598 35.7482,16.5598 35.7482,30.965 "/>
<path class="fil3" d="M72.1853 34.5331c0,-2.82331 0.162277,-5.19483 0.48694,-7.11465 0.324663,-1.91982 0.82579,-3.46555 1.50338,-4.63717 0.677591,-1.17162 1.52455,-2.01149 2.54099,-2.51971 1.01633,-0.50822 2.20203,-0.762276 3.55722,-0.762276 1.38345,0 2.55507,0.239978 3.51498,0.719933 0.959911,0.479956 1.73627,1.29167 2.32917,2.43503 0.592906,1.14347 1.02343,2.67501 1.29156,4.59483 0.268243,1.91982 0.402364,4.30541 0.402364,7.15688 0,2.908 -0.155293,5.35012 -0.465878,7.32636 -0.310476,1.97624 -0.790432,3.5714 -1.43987,4.78537 -0.649326,1.21397 -1.4821,2.0821 -2.49854,2.6044 -1.01633,0.522298 -2.21622,0.783447 -3.59956,0.783447 -1.35518,0 -2.51982,-0.225791 -3.49381,-0.677482 -0.973989,-0.4518 -1.76453,-1.2634 -2.37151,-2.43514 -0.606983,-1.17162 -1.05169,-2.7455 -1.33401,-4.72186 -0.28232,-1.97624 -0.423426,-4.48897 -0.423426,-7.53797zm3.85372 0.846961c0,1.97624 0.0635139,3.65609 0.190542,5.03943 0.127028,1.38345 0.345834,2.51971 0.65642,3.40913 0.310476,0.889304 0.71284,1.53863 1.20687,1.94798 0.494143,0.409348 1.1223,0.614077 1.88457,0.614077 0.762276,0 1.40451,-0.211713 1.92681,-0.635248 0.522298,-0.423426 0.945833,-1.1152 1.2705,-2.07512 0.324663,-0.959911 0.557547,-2.18796 0.698762,-3.68424 0.141106,-1.4964 0.211713,-3.33142 0.211713,-5.50541 0,-2.11735 -0.0635139,-3.90305 -0.190542,-5.35699 -0.127028,-1.45405 -0.33885,-2.63976 -0.635248,-3.55732 -0.296398,-0.917569 -0.691669,-1.57399 -1.18581,-1.96926 -0.494033,-0.39527 -1.12219,-0.592797 -1.88446,-0.592797 -0.734011,0 -1.36217,0.218807 -1.88446,0.65631 -0.522298,0.437613 -0.952927,1.14347 -1.29167,2.11746 -0.33885,0.973989 -0.585812,2.24449 -0.741105,3.81138 -0.155293,1.56689 -0.232884,3.49381 -0.232884,5.78064z"/>
<path class="fil3" d="M97.4251 19.457c2.03277,0 3.46555,0.204729 4.29832,0.614077 0.832883,0.409348 1.24933,0.910475 1.24933,1.50338 0,0.310476 -0.0635139,0.642233 -0.190542,0.99516 -0.127028,0.352928 -0.345834,0.684684 -0.65642,0.99516 -0.310585,-0.225791 -0.832883,-0.458784 -1.56689,-0.698762 -0.734011,-0.239978 -1.59516,-0.359912 -2.58323,-0.359912 -1.2705,0 -2.27275,0.261149 -3.00676,0.783447 -0.73412,0.522298 -1.10113,1.23514 -1.10113,2.13863 0,0.790432 0.162386,1.49629 0.487049,2.11735 0.324663,0.62117 0.811712,1.31284 1.46104,2.07512l4.57366 5.2089c0.536376,0.649326 0.988067,1.2634 1.35507,1.84212 0.367115,0.578828 0.663513,1.15755 0.889413,1.73637 0.225791,0.578719 0.381083,1.15744 0.465769,1.73627 0.0846852,0.578719 0.127028,1.1928 0.127028,1.84212 0,1.07286 -0.127028,2.08919 -0.381083,3.0491 -0.254056,0.959911 -0.670497,1.80687 -1.24933,2.54088 -0.578719,0.73412 -1.35507,1.31284 -2.32917,1.73637 -0.973989,0.423426 -2.18097,0.635248 -3.62073,0.635248 -1.91982,0 -3.32444,-0.275336 -4.21374,-0.825899 -0.889304,-0.550454 -1.33401,-1.12219 -1.33401,-1.71509 0,-0.338741 0.0706074,-0.734011 0.211822,-1.1857 0.141106,-0.4518 0.367006,-0.875226 0.677591,-1.2705 0.451691,0.39527 1.0375,0.741105 1.75744,1.0375 0.719933,0.296507 1.58807,0.444707 2.6044,0.444707 1.52455,0 2.59741,-0.39527 3.21847,-1.18581 0.62117,-0.790432 0.931756,-1.83503 0.931756,-3.13379 0,-0.959911 -0.176464,-1.84922 -0.529392,-2.66791 -0.352928,-0.818697 -0.99516,-1.76453 -1.92692,-2.83739l-4.27715 -4.95474c-0.959911,-1.18581 -1.6375,-2.25158 -2.03277,-3.1973 -0.39527,-0.945833 -0.592906,-1.91284 -0.592906,-2.90091 0,-1.77861 0.614077,-3.23965 1.84223,-4.38311 1.22804,-1.14336 3.04201,-1.71509 5.44179,-1.71509z"/>
<path class="fil3" d="M106.022 20.6003c0,-0.338741 0.0706074,-0.54347 0.211822,-0.613968 0.141106,-0.0706074 0.310476,-0.105857 0.508111,-0.105857l2.49865 0 4.02309 12.7892c0.11295,0.423535 0.246962,0.889304 0.402255,1.39752 0.155293,0.50822 0.296507,1.00225 0.423535,1.48221 0.127028,0.479956 0.239978,0.889304 0.338741,1.22804 0.0988722,0.33885 0.162386,0.550563 0.190651,0.635248 0,-0.0281557 0.0423426,-0.218807 0.127028,-0.571625 0.0846852,-0.352928 0.190542,-0.762276 0.31757,-1.22815 0.127028,-0.465878 0.254056,-0.952818 0.381193,-1.46104 0.127028,-0.50822 0.261149,-0.959911 0.402255,-1.35518l3.7267 -12.1964c0.0564204,-0.225791 0.127028,-0.402255 0.211713,-0.529283 0.0846852,-0.127028 0.239978,-0.190542 0.465878,-0.190542l2.79494 0 0 28.9664c0,0.16937 -0.0211713,0.303492 -0.0635139,0.402364 -0.0423426,0.098763 -0.16937,0.16937 -0.381083,0.211713 -0.211713,0.0423426 -0.557547,0.0635139 -1.0375,0.0635139 -0.479956,0 -1.15755,0 -2.03277,0l0.127028 -10.2907c0.0282648,-1.01644 0.0777009,-2.17399 0.148199,-3.47264 0.0706074,-1.29865 0.148199,-2.56206 0.232993,-3.79021 0.0846852,-1.22804 0.162277,-2.32208 0.232884,-3.28199 0.0706074,-0.959911 0.119934,-1.60924 0.148199,-1.94809 -0.2259,0.790541 -0.479956,1.68694 -0.762276,2.68919 -0.28232,1.00225 -0.550563,1.96217 -0.804619,2.87973 -0.254056,0.917569 -0.487049,1.73627 -0.698762,2.4562 -0.211713,0.719933 -0.359912,1.20687 -0.444597,1.46104l-2.24449 6.43695c-0.0565296,0.141215 -0.127137,0.232884 -0.211822,0.275227 -0.0846852,0.0424517 -0.16937,0.063623 -0.254056,0.063623l-1.48221 0 -2.20214 -6.7758c-0.0846852,-0.2259 -0.232884,-0.698762 -0.444597,-1.4187 -0.211822,-0.719933 -0.4518,-1.54572 -0.719933,-2.47737 -0.268243,-0.931756 -0.54347,-1.90574 -0.82579,-2.92208 -0.28232,-1.01633 -0.536485,-1.9339 -0.762276,-2.75271l0 0.0423426c0.141106,1.4964 0.268133,2.99268 0.381083,4.48897 0.11295,1.2705 0.204729,2.61858 0.275336,4.04426 0.0704983,1.42579 0.119934,2.70327 0.148199,3.83255l0.0846852 9.78256c0,0.16937 -0.0282648,0.303492 -0.0846852,0.402364 -0.0565296,0.098763 -0.197635,0.16937 -0.423535,0.211713 -0.225791,0.0423426 -0.571734,0.0635139 -1.0375,0.0635139 -0.465878,0 -1.09403,0 -1.88457,0l0 -28.9241z"/>
<path class="fil3" d="M133.379 20.6851c0,-0.254165 0.0777009,-0.4518 0.232993,-0.592906 0.155293,-0.141215 0.458784,-0.211713 0.910475,-0.211713l4.19246 0c0.846961,0 1.69392,0.0846852 2.54099,0.254056 0.846961,0.16937 1.60924,0.494033 2.28683,0.973989 0.677482,0.479956 1.22804,1.15045 1.65158,2.0116 0.423426,0.861039 0.635248,1.96915 0.635248,3.32433 0,1.15755 -0.127137,2.15271 -0.381193,2.98559 -0.254056,0.832883 -0.578719,1.52455 -0.973989,2.07512 -0.39527,0.550454 -0.832883,0.966896 -1.31284,1.24922 -0.479956,0.28232 -0.945724,0.451691 -1.39752,0.50822 0.479956,0.0282648 1.00935,0.127028 1.58807,0.296398 0.578828,0.16937 1.1223,0.479956 1.63041,0.931647 0.50822,0.4518 0.931756,1.07286 1.2705,1.8634 0.33885,0.790541 0.50822,1.82095 0.50822,3.09145 0,1.77861 -0.211822,3.30316 -0.635248,4.57366 -0.423535,1.2705 -1.00225,2.31509 -1.73627,3.13379 -0.73412,0.818697 -1.58807,1.4187 -2.56216,1.79978 -0.973989,0.381193 -2.01149,0.571734 -3.11262,0.571734l-5.33593 0 0 -28.8394zm3.51498 11.307l2.07512 0c0.903382,0 1.64449,-0.388177 2.22331,-1.16453 0.578719,-0.776463 0.868133,-2.0116 0.868133,-3.70552 0,-0.875226 -0.0846852,-1.58097 -0.254165,-2.11746 -0.16937,-0.536376 -0.402255,-0.959911 -0.698762,-1.27039 -0.296398,-0.310585 -0.635139,-0.522407 -1.01633,-0.635248 -0.381083,-0.11295 -0.76937,-0.16948 -1.16453,-0.16948l-2.03277 0 0 9.06263zm0 14.5256l1.90564 0c0.536485,0 1.03761,-0.127028 1.50338,-0.381083 0.465878,-0.254165 0.88232,-0.65642 1.24933,-1.20698 0.367006,-0.550563 0.65642,-1.24933 0.868133,-2.09629 0.211713,-0.846961 0.317679,-1.87737 0.317679,-3.09145 0,-1.10102 -0.0988722,-1.96915 -0.296507,-2.6044 -0.197635,-0.635248 -0.465769,-1.1152 -0.804619,-1.43987 -0.338741,-0.324663 -0.748198,-0.529392 -1.22815,-0.614077 -0.479847,-0.0846852 -1.00214,-0.127028 -1.56689,-0.127028l-1.94798 0 0 11.5612z"/>
<path class="fil3" d="M162.007 48.4235c-0.818806,0.451691 -1.7857,0.818697 -2.90091,1.10102 -1.1152,0.28232 -2.25147,0.423535 -3.40902,0.423535 -1.2705,0 -2.31509,-0.141215 -3.13379,-0.423535 -0.818806,-0.28232 -1.46813,-0.719933 -1.94809,-1.31284 -0.479956,-0.592797 -0.811712,-1.32692 -0.99516,-2.20214 -0.183557,-0.875117 -0.275336,-1.90564 -0.275336,-3.09145l0 -13.848c0,-0.16937 0.0211713,-0.303492 0.063623,-0.402255 0.0423426,-0.0988722 0.16937,-0.16937 0.381083,-0.211713 0.211713,-0.0423426 0.557547,-0.0706074 1.0375,-0.0846852 0.479956,-0.014187 1.17173,-0.0211713 2.07512,-0.0211713l0 14.8643c0,1.38334 0.183557,2.35034 0.550563,2.90091 0.367006,0.550454 1.12928,0.82579 2.28683,0.82579 0.39527,0 0.853946,-0.0494361 1.37635,-0.148308 0.522298,-0.098763 1.00924,-0.303492 1.46093,-0.613968l0 -17.1089c0,-0.16937 0.0211713,-0.303492 0.0635139,-0.402255 0.0424517,-0.0988722 0.16948,-0.16937 0.381193,-0.211713 0.211713,-0.0423426 0.550563,-0.0706074 1.01633,-0.0846852 0.465878,-0.014187 1.1223,-0.0211713 1.96926,-0.0211713l0 20.0732z"/>
<path class="fil3" d="M169.46 48.8469c0,0.16937 -0.0211713,0.303492 -0.0635139,0.402364 -0.0423426,0.098763 -0.176464,0.16937 -0.402364,0.211713 -0.225791,0.0423426 -0.571625,0.0635139 -1.0375,0.0635139 -0.465769,0 -1.13638,0 -2.01149,0l0 -19.6074c0,-0.39527 0.049327,-0.698762 0.148199,-0.910584 0.098763,-0.211713 0.28232,-0.367006 0.550454,-0.465769 0.268243,-0.0988722 0.628264,-0.155293 1.07995,-0.16937 0.451691,-0.014187 1.03052,-0.0211713 1.73627,-0.0211713l0 20.4967zm-3.47253 -27.2301c0.0281557,-0.762276 0.197635,-1.37635 0.508111,-1.84223 0.310585,-0.465769 0.804619,-0.698762 1.48221,-0.698762 0.649326,0 1.10113,0.183557 1.35518,0.550563 0.254056,0.367006 0.367006,1.00225 0.338741,1.90574 0,0.875117 -0.162277,1.55271 -0.48694,2.03266 -0.324663,0.479956 -0.811712,0.719933 -1.46104,0.719933 -0.564641,0 -0.99516,-0.197635 -1.29167,-0.592906 -0.296398,-0.395161 -0.444597,-1.08694 -0.444597,-2.07501z"/>
<path class="fil3" d="M176.787 48.8469c0,0.16937 -0.0211713,0.303492 -0.0635139,0.402364 -0.0423426,0.098763 -0.16937,0.16937 -0.381193,0.211713 -0.211713,0.0423426 -0.550454,0.0635139 -1.01633,0.0635139 -0.465878,0 -1.12219,0 -1.96915,0l0 -29.5593c0,-0.39527 0.049327,-0.698762 0.148199,-0.910584 0.098763,-0.211713 0.275227,-0.367006 0.529283,-0.465769 0.254165,-0.0988722 0.607093,-0.155293 1.05878,-0.16937 0.451691,-0.014187 1.01633,-0.0211713 1.69392,-0.0211713l0 30.4486z"/>
<path class="fil3" d="M189.618 31.484c-0.28232,-0.2259 -0.564641,-0.374099 -0.846961,-0.444707 -0.28232,-0.0706074 -0.649326,-0.105857 -1.10102,-0.105857 -0.479956,0 -0.93874,0.11295 -1.37635,0.338741 -0.437613,0.2259 -0.832883,0.642342 -1.18581,1.24933 -0.352928,0.606983 -0.635248,1.46104 -0.846961,2.56206 -0.211713,1.10113 -0.31757,2.51273 -0.31757,4.23492 0,1.58097 0.0706074,2.86555 0.211713,3.85372 0.141215,0.988067 0.352928,1.75744 0.635248,2.308 0.28232,0.550454 0.614077,0.917569 0.99516,1.10102 0.381193,0.183557 0.82579,0.275336 1.33401,0.275336 0.479956,0 0.931647,-0.0494361 1.35518,-0.148308 0.423426,-0.098763 0.804619,-0.261149 1.14336,-0.48694l0 -14.7373zm0 -11.5188c0,-0.39527 0.0494361,-0.698762 0.148199,-0.910584 0.0988722,-0.211713 0.275336,-0.367006 0.529392,-0.465769 0.254056,-0.0988722 0.59989,-0.155293 1.0375,-0.16937 0.437613,-0.014187 1.00935,-0.0211713 1.7152,-0.0211713l0 30.2792c-0.705856,0.338741 -1.55991,0.635248 -2.56216,0.889304 -1.00225,0.254056 -2.16678,0.381193 -3.4937,0.381193 -0.931647,0 -1.81397,-0.105966 -2.64685,-0.317679 -0.832774,-0.211713 -1.56689,-0.670497 -2.20214,-1.37635 -0.635139,-0.705747 -1.13627,-1.73627 -1.50338,-3.09145 -0.367006,-1.35507 -0.550454,-3.17613 -0.550454,-5.46296 0,-2.08919 0.16937,-3.88188 0.508111,-5.37828 0.33885,-1.49629 0.804619,-2.71735 1.39752,-3.66307 0.592906,-0.945833 1.28457,-1.6375 2.07512,-2.07512 0.790541,-0.437613 1.6375,-0.65642 2.54088,-0.65642 1.2705,0 2.27275,0.28232 3.00676,0.846961l0 -8.80846z"/>
<path class="fil3" d="M200.544 48.8469c0,0.16937 -0.0211713,0.303492 -0.0635139,0.402364 -0.0423426,0.098763 -0.176464,0.16937 -0.402364,0.211713 -0.225791,0.0423426 -0.571625,0.0635139 -1.0375,0.0635139 -0.465769,0 -1.13638,0 -2.01149,0l0 -19.6074c0,-0.39527 0.049327,-0.698762 0.148199,-0.910584 0.098763,-0.211713 0.28232,-0.367006 0.550454,-0.465769 0.268243,-0.0988722 0.628264,-0.155293 1.07995,-0.16937 0.451691,-0.014187 1.03052,-0.0211713 1.73627,-0.0211713l0 20.4967zm-3.47253 -27.2301c0.0281557,-0.762276 0.197635,-1.37635 0.508111,-1.84223 0.310585,-0.465769 0.804619,-0.698762 1.48221,-0.698762 0.649326,0 1.10113,0.183557 1.35518,0.550563 0.254056,0.367006 0.367006,1.00225 0.338741,1.90574 0,0.875117 -0.162277,1.55271 -0.48694,2.03266 -0.324663,0.479956 -0.811712,0.719933 -1.46104,0.719933 -0.564641,0 -0.99516,-0.197635 -1.29167,-0.592906 -0.296398,-0.395161 -0.444597,-1.08694 -0.444597,-2.07501z"/>
<path class="fil3" d="M204.398 29.3666c0.423535,-0.16937 0.903491,-0.345834 1.43987,-0.529392 0.536485,-0.183448 1.10113,-0.338741 1.69403,-0.465769 0.592797,-0.127137 1.1928,-0.232993 1.79978,-0.317679 0.606983,-0.0846852 1.1928,-0.127028 1.75744,-0.127028 2.23041,0 3.78312,0.43052 4.65834,1.29167 0.875226,0.861039 1.31284,2.32208 1.31284,4.38301l0 15.2455c0,0.16937 -0.0211713,0.303492 -0.0635139,0.402364 -0.0423426,0.098763 -0.176464,0.16937 -0.402364,0.211713 -0.225791,0.0423426 -0.578719,0.0635139 -1.05867,0.0635139 -0.479956,0 -1.15755,0 -2.03277,0l0 -14.9067c0,-1.35518 -0.155293,-2.308 -0.465769,-2.85856 -0.310585,-0.550563 -1.00225,-0.82579 -2.07512,-0.82579 -0.451691,0 -0.967005,0.0635139 -1.54572,0.190542 -0.578719,0.127028 -1.10811,0.317679 -1.58807,0.571734l0 17.1512c0,0.16937 -0.0211713,0.303492 -0.0635139,0.402364 -0.0423426,0.098763 -0.176464,0.16937 -0.402364,0.211713 -0.225791,0.0423426 -0.564641,0.0635139 -1.01633,0.0635139 -0.451691,0 -1.10102,0 -1.94809,0l0 -20.1579z"/>
<path class="fil3" d="M227.351 27.9267c0.28232,0 0.614077,0.0282648 0.99527,0.0846852 0.381083,0.0564204 0.755183,0.141215 1.12219,0.254056l5.08188 0c0.0846852,0.141215 0.162277,0.352928 0.232884,0.635248 0.0706074,0.28232 0.105857,0.62117 0.105857,1.01644 0,0.875117 -0.39527,1.31273 -1.1857,1.31273 -0.39527,0 -0.903491,-0.0706074 -1.52455,-0.211713 0.479847,0.479956 0.868133,1.10102 1.16453,1.86329 0.296398,0.762276 0.444707,1.66577 0.444707,2.71036 0,2.25856 -0.529392,4.05845 -1.58807,5.39945 -1.05878,1.34099 -2.81622,2.0116 -5.27242,2.0116 -0.790541,0 -1.42579,-0.0565296 -1.90574,-0.16948 -0.28232,0.28232 -0.536376,0.592906 -0.762276,0.931756 -0.225791,0.338741 -0.338741,0.649326 -0.338741,0.931647 0,0.197635 0.127028,0.359912 0.381083,0.48694 0.254165,0.127137 0.606983,0.232993 1.05878,0.317679 0.451691,0.0846852 0.981083,0.16937 1.58807,0.254056 0.606983,0.0846852 1.2634,0.16937 1.96915,0.254056 0.846961,0.141215 1.60924,0.317679 2.28683,0.529392 0.677591,0.211713 1.2634,0.50822 1.75755,0.889304 0.494033,0.381193 0.875117,0.854055 1.14336,1.4187 0.268243,0.564641 0.402364,1.2705 0.402364,2.11746 0,0.903382 -0.155293,1.77162 -0.465878,2.6044 -0.310585,0.832883 -0.797525,1.56689 -1.46104,2.20214 -0.663404,0.635248 -1.51047,1.14347 -2.54088,1.52455 -1.03052,0.381193 -2.25158,0.571734 -3.66318,0.571734 -1.4116,0 -2.56206,-0.134121 -3.45136,-0.402364 -0.889413,-0.268133 -1.58108,-0.628155 -2.07512,-1.07985 -0.494033,-0.451691 -0.82579,-0.945833 -0.99516,-1.48221 -0.16948,-0.536376 -0.254165,-1.08694 -0.254165,-1.65158 0,-1.0446 0.310585,-1.99741 0.931647,-2.85856 0.62117,-0.861039 1.38345,-1.60214 2.28683,-2.22331 -0.818697,-0.225791 -1.46104,-0.529283 -1.92681,-0.910475 -0.465878,-0.381083 -0.684684,-0.854055 -0.65642,-1.4187 0.0282648,-0.564641 0.28232,-1.17872 0.762276,-1.84212 0.479956,-0.663513 1.12928,-1.31993 1.94809,-1.96926 -0.988176,-0.649326 -1.67286,-1.53154 -2.05394,-2.64674 -0.381193,-1.1152 -0.571734,-2.35034 -0.571734,-3.70552 0,-1.4116 0.16937,-2.61149 0.50822,-3.59967 0.338741,-0.988067 0.818697,-1.7857 1.43987,-2.39268 0.621061,-0.606983 1.36217,-1.05158 2.22331,-1.3339 0.861039,-0.28243 1.81386,-0.423535 2.85845,-0.423535zm-0.127028 2.54088c-0.903382,0 -1.67275,0.388177 -2.308,1.16464 -0.635248,0.776354 -0.952818,2.09618 -0.952818,3.95958 0,0.762276 0.0423426,1.43987 0.127028,2.03277 0.0846852,0.592797 0.239978,1.09392 0.465878,1.50327 0.225791,0.409457 0.54347,0.719933 0.952818,0.931756 0.409348,0.211713 0.93874,0.31757 1.58807,0.31757 1.12928,0 1.94798,-0.465769 2.4562,-1.39752 0.50822,-0.931647 0.762276,-2.32917 0.762276,-4.19246 0,-1.55282 -0.261149,-2.66093 -0.783447,-3.32433 -0.522298,-0.663513 -1.29167,-0.99527 -2.308,-0.99527zm-1.01633 18.2523c-0.141215,0 -0.268243,-0.00709348 -0.381193,-0.0211713 -0.11295,-0.0140778 -0.239978,-0.0352491 -0.381083,-0.0635139 -0.62117,0.479956 -1.15755,1.05867 -1.60924,1.73627 -0.4518,0.677591 -0.677591,1.36926 -0.677591,2.07512 0,0.338741 0.0494361,0.642233 0.148199,0.910475 0.098763,0.268243 0.275227,0.501127 0.529392,0.698762 0.254056,0.197635 0.614077,0.352928 1.07985,0.465769 0.465878,0.11295 1.06577,0.16948 1.79978,0.16948 0.762276,0 1.41171,-0.0988722 1.94809,-0.296507 0.536376,-0.197635 0.981083,-0.458784 1.33401,-0.783447 0.352928,-0.324663 0.614077,-0.677591 0.783447,-1.05867 0.16937,-0.381193 0.254056,-0.755183 0.254056,-1.1223 0,-0.479847 -0.0775917,-0.875117 -0.232884,-1.1857 -0.155293,-0.310585 -0.416442,-0.571734 -0.783447,-0.783447 -0.367006,-0.211713 -0.861148,-0.374099 -1.48221,-0.487049 -0.62117,-0.11295 -1.39752,-0.197635 -2.32917,-0.254056z"/>
<path class="fil3" d="M243.528 27.9267c1.10102,0 1.99741,0.0846852 2.68908,0.254056 0.691669,0.16948 1.23514,0.374099 1.63041,0.614077 0.39527,0.239978 0.663513,0.501127 0.804619,0.783447 0.141215,0.28232 0.211822,0.522298 0.211822,0.719933 0,0.592906 -0.254165,1.17162 -0.762276,1.73627 -1.21408,-0.734011 -2.59741,-1.10102 -4.15023,-1.10102 -0.988067,0 -1.79269,0.176464 -2.41386,0.529392 -0.621061,0.352819 -0.931647,0.853946 -0.931647,1.50327 0,0.39527 0.098763,0.783557 0.296398,1.16464 0.197635,0.381193 0.663513,0.868133 1.39752,1.46104l3.93841 3.17613c0.903491,0.903491 1.54572,1.74336 1.92692,2.51971 0.381083,0.776463 0.571625,1.70102 0.571625,2.77388 0,1.89156 -0.621061,3.3455 -1.86329,4.36194 -1.24223,1.01633 -2.95023,1.52455 -5.12422,1.52455 -1.52455,0 -2.76678,-0.176464 -3.72659,-0.529392 -0.959911,-0.352928 -1.43987,-0.896397 -1.43987,-1.63041 0,-0.254165 0.0423426,-0.550563 0.127028,-0.889304 0.0846852,-0.33885 0.239978,-0.705856 0.465769,-1.10113 1.21408,0.705856 2.62568,1.05878 4.23492,1.05878 1.07286,0 1.91273,-0.2259 2.51971,-0.677591 0.606983,-0.4518 0.910475,-1.10113 0.910475,-1.94809 0,-0.564641 -0.119934,-1.1152 -0.359912,-1.65158 -0.239978,-0.536376 -0.684684,-1.08694 -1.33401,-1.65158l-4.10778 -3.51498c-0.959911,-0.790432 -1.60225,-1.5598 -1.92692,-2.308 -0.324663,-0.748089 -0.48694,-1.47512 -0.48694,-2.18097 0,-1.46802 0.557547,-2.66791 1.67275,-3.59956 1.1152,-0.931647 2.85856,-1.39752 5.23008,-1.39752z"/>
</svg>